<?xml version="1.0" encoding="UTF-8" standalone="no"?>
<!-- Created with Inkscape (http://www.inkscape.org/) -->

<svg
   xmlns:dc="http://purl.org/dc/elements/1.1/"
   xmlns:cc="http://creativecommons.org/ns#"
   xmlns:rdf="http://www.w3.org/1999/02/22-rdf-syntax-ns#"
   xmlns:svg="http://www.w3.org/2000/svg"
   xmlns="http://www.w3.org/2000/svg"
   xmlns:sodipodi="http://sodipodi.sourceforge.net/DTD/sodipodi-0.dtd"
   xmlns:inkscape="http://www.inkscape.org/namespaces/inkscape"
   id="svg3004"
   version="1.1"
   inkscape:version="0.48.4 r9939"
   width="750"
   height="750"
   xml:space="preserve"
   sodipodi:docname="jack-kinsey-logo.ai"><metadata
     id="metadata3010"><rdf:RDF><cc:Work
         rdf:about=""><dc:format>image/svg+xml</dc:format><dc:type
           rdf:resource="http://purl.org/dc/dcmitype/StillImage" /><dc:title></dc:title></cc:Work></rdf:RDF></metadata><defs
     id="defs3008"><clipPath
       clipPathUnits="userSpaceOnUse"
       id="clipPath3018"><path
         d="M 0,600 600,600 600,0 0,0 0,600 z"
         id="path3020" /></clipPath></defs><sodipodi:namedview
     pagecolor="#ffffff"
     bordercolor="#666666"
     borderopacity="1"
     objecttolerance="10"
     gridtolerance="10"
     guidetolerance="10"
     inkscape:pageopacity="0"
     inkscape:pageshadow="2"
     inkscape:window-width="1311"
     inkscape:window-height="744"
     id="namedview3006"
     showgrid="false"
     inkscape:zoom="0.89001173"
     inkscape:cx="511.42004"
     inkscape:cy="435.09406"
     inkscape:window-x="55"
     inkscape:window-y="24"
     inkscape:window-maximized="1"
     inkscape:current-layer="g3012" /><g
     id="g3012"
     inkscape:groupmode="layer"
     inkscape:label="jack-kinsey-logo"
     transform="matrix(1.25,0,0,-1.25,0,750)"><g
       id="g3014"
       style="fill:#4099ff;fill-opacity:1;stroke:#4099ff;stroke-opacity:1;stroke-linejoin:round;stroke-linecap:round;stroke-width:5.6;stroke-miterlimit:4;stroke-dasharray:none;stroke-dashoffset:0"><g
         id="g3016"
         clip-path="url(#clipPath3018)"
         style="fill:#4099ff;fill-opacity:1;stroke:#4099ff;stroke-opacity:1;stroke-linejoin:round;stroke-linecap:round;stroke-width:5.6;stroke-miterlimit:4;stroke-dasharray:none;stroke-dashoffset:0"><g
           id="g3022"
           transform="translate(117,141)"
           style="fill:#4099ff;fill-opacity:1;stroke:#4099ff;stroke-opacity:1;stroke-linejoin:round;stroke-linecap:round;stroke-width:5.6;stroke-miterlimit:4;stroke-dasharray:none;stroke-dashoffset:0"><path
             d="m 0,0 c 100,0 100,100 100,100 l 0,196 -200,0 0,100 299,0 0,-196 L 401.189,400.439 463,339 273.562,150 463.781,-40 403.891,-100 201.945,100 C 201.945,100 200,-100 0,-100 L 0,0 z"
             style="fill:#4099ff;fill-opacity:1;fill-rule:nonzero;stroke:#4099ff;stroke-opacity:1;stroke-linejoin:round;stroke-linecap:round;stroke-width:5.6;stroke-miterlimit:4;stroke-dasharray:none;stroke-dashoffset:0"
             id="path3024" /></g><g
           id="g3026"
           transform="translate(117,141)"
           style="fill:#4099ff;fill-opacity:1;stroke:#4099ff;stroke-opacity:1;stroke-linejoin:round;stroke-linecap:round;stroke-width:5.6;stroke-miterlimit:4;stroke-dasharray:none;stroke-dashoffset:0"><path
             d="m 0,0 c 100,0 100,100 100,100 l 0,196 -200,0 0,100 299,0 0,-196 L 401.189,400.439 463,339 273.562,150 463.781,-40 403.891,-100 201.945,100 C 201.945,100 200,-100 0,-100 L 0,0 z"
             style="fill:#4099ff;stroke:#4099ff;stroke-opacity:1;stroke-width:5.6;stroke-linecap:round;stroke-linejoin:round;stroke-miterlimit:4;stroke-dasharray:none;fill-opacity:1;stroke-dashoffset:0"
             id="path3028" /></g></g></g></g></svg>